<?xml version="1.0" encoding="UTF-8" standalone="no"?>
<svg
   xmlns:dc="http://purl.org/dc/elements/1.1/"
   xmlns:cc="http://creativecommons.org/ns#"
   xmlns:rdf="http://www.w3.org/1999/02/22-rdf-syntax-ns#"
   xmlns:svg="http://www.w3.org/2000/svg"
   xmlns="http://www.w3.org/2000/svg"
   xmlns:sodipodi="http://sodipodi.sourceforge.net/DTD/sodipodi-0.dtd"
   xmlns:inkscape="http://www.inkscape.org/namespaces/inkscape"
   height="30"
   viewBox="0 0 22.5 22.5"
   width="30"
   version="1.1"
   id="svg8"
   sodipodi:docname="camera.svg"
   inkscape:version="0.92.3 (2405546, 2018-03-11)">
  <metadata
     id="metadata14">
    <rdf:RDF>
      <cc:Work
         rdf:about="">
        <dc:format>image/svg+xml</dc:format>
        <dc:type
           rdf:resource="http://purl.org/dc/dcmitype/StillImage" />
        <dc:title></dc:title>
      </cc:Work>
    </rdf:RDF>
  </metadata>
  <defs
     id="defs12" />
  <sodipodi:namedview
     pagecolor="#ffffff"
     bordercolor="#666666"
     borderopacity="1"
     objecttolerance="10"
     gridtolerance="10"
     guidetolerance="10"
     inkscape:pageopacity="0"
     inkscape:pageshadow="2"
     inkscape:window-width="1920"
     inkscape:window-height="1017"
     id="namedview10"
     showgrid="false"
     units="px"
     inkscape:zoom="15.644737"
     inkscape:cx="27.957105"
     inkscape:cy="20.178639"
     inkscape:window-x="-8"
     inkscape:window-y="-8"
     inkscape:window-maximized="1"
     inkscape:current-layer="svg8"
     width="3in" />
  <g
     id="g19"
     transform="matrix(0.04250412,0,0,0.0430374,0.36800867,-2.4577019)"
     style="fill:#2b1100">
    <path
       inkscape:connector-curvature="0"
       id="path2"
       d="m 305,320.00008 c 0,27.0625 -21.9375,49 -49,49 -27.0625,0 -49,-21.9375 -49,-49 0,-27.0625 21.9375,-49 49,-49 27.0625,0 49,21.9375 49,49 z m 0,0"
       style="fill:#2b1100" />
    <path
       inkscape:connector-curvature="0"
       id="path4"
       d="m 370.59375,233.30478 c -2.35547,-6.3828 -6.11328,-12.1602 -10.99609,-16.9024 -4.74219,-4.8828 -10.51563,-8.6406 -16.90235,-10.9961 -5.17968,-2.0117 -12.96093,-4.4062 -27.29297,-5.0585 -15.5039,-0.7071 -20.15234,-0.8594 -59.40234,-0.8594 -39.25391,0 -43.90234,0.1484 -59.40234,0.8554 -14.33203,0.6563 -22.11719,3.0508 -27.29297,5.0625 -6.38672,2.3555 -12.16406,6.1133 -16.90235,10.9961 -4.88281,4.7422 -8.64062,10.5157 -11,16.9024 -2.01171,5.1797 -4.40625,12.9648 -5.05859,27.2969 -0.70703,15.5 -0.85937,20.1484 -0.85937,59.4023 0,39.25 0.15234,43.8984 0.85937,59.4023 0.65234,14.3321 3.04688,22.1133 5.05859,27.293 2.35938,6.3867 6.11329,12.1602 10.9961,16.9024 4.74219,4.8828 10.51562,8.6406 16.90234,10.9961 5.17969,2.0156 12.96485,4.4101 27.29688,5.0625 15.5,0.707 20.14453,0.8554 59.39843,0.8554 39.25782,0 43.90625,-0.1484 59.40235,-0.8554 14.33203,-0.6524 22.11719,-3.0469 27.29687,-5.0625 12.82032,-4.9454 22.95313,-15.0782 27.89844,-27.8985 2.01172,-5.1797 4.40625,-12.9609 5.0625,-27.293 0.70703,-15.5039 0.85547,-20.1523 0.85547,-59.4023 0,-39.2539 -0.14844,-43.9023 -0.85547,-59.4023 -0.65234,-14.3321 -3.04687,-22.1172 -5.0625,-27.2969 z M 256,395.48448 c -41.69141,0 -75.48828,-33.793 -75.48828,-75.4844 0,-41.6914 33.79687,-75.4844 75.48828,-75.4844 41.6875,0 75.48438,33.793 75.48438,75.4844 0,41.6914 -33.79688,75.4844 -75.48438,75.4844 z m 78.46875,-136.3125 c -9.74219,0 -17.64062,-7.8985 -17.64062,-17.6407 0,-9.7421 7.89843,-17.6406 17.64062,-17.6406 9.74219,0 17.64063,7.8985 17.64063,17.6406 -0.004,9.7422 -7.89844,17.6407 -17.64063,17.6407 z m 0,0"
       style="fill:#2b1100" />
    <path
       inkscape:connector-curvature="0"
       id="path6"
       d="m 256,64.00008 c -141.36328,0 -256,114.6367 -256,256 0,141.3633 114.63672,256 256,256 141.36328,0 256,-114.6367 256,-256 0,-141.3633 -114.63672,-256 -256,-256 z m 146.11328,316.6055 c -0.71094,15.6484 -3.19922,26.332 -6.83203,35.6836 -7.63672,19.7461 -23.24609,35.3554 -42.99219,42.9921 -9.34765,3.6329 -20.03515,6.1172 -35.67968,6.8321 -15.67579,0.7148 -20.6836,0.8867 -60.60547,0.8867 -39.92578,0 -44.92969,-0.1719 -60.60938,-0.8867 -15.64453,-0.7149 -26.33203,-3.1992 -35.67969,-6.8321 -9.8125,-3.6914 -18.69531,-9.4765 -26.03906,-16.957 -7.47656,-7.3398 -13.26172,-16.2265 -16.95312,-26.0351 -3.63282,-9.3477 -6.1211,-20.0352 -6.83203,-35.6797 C 109.16797,364.92978 109,359.92198 109,320.00008 c 0,-39.9219 0.16797,-44.9297 0.88672,-60.6055 0.71094,-15.6484 3.19531,-26.332 6.82812,-35.6836 3.69141,-9.8086 9.48047,-18.6953 16.96094,-26.0351 7.33985,-7.4805 16.22656,-13.2656 26.03516,-16.9571 9.35156,-3.6328 20.03515,-6.1171 35.68359,-6.832 15.67578,-0.7148 20.6836,-0.8867 60.60547,-0.8867 39.92188,0 44.92969,0.1719 60.60547,0.8906 15.64844,0.711 26.33203,3.1953 35.68359,6.8242 9.8086,3.6914 18.69531,9.4805 26.03906,16.961 7.47657,7.3437 13.26563,16.2265 16.95313,26.0351 3.63672,9.3516 6.12109,20.0352 6.83594,35.6836 0.71484,15.6758 0.88281,20.6836 0.88281,60.6055 0,39.9219 -0.16797,44.9297 -0.88672,60.6055 z m 0,0"
       style="fill:#2b1100" />
  </g>
</svg>
