<?xml version="1.0" encoding="UTF-8" standalone="no"?>
<svg
   xmlns:dc="http://purl.org/dc/elements/1.1/"
   xmlns:cc="http://creativecommons.org/ns#"
   xmlns:rdf="http://www.w3.org/1999/02/22-rdf-syntax-ns#"
   xmlns:svg="http://www.w3.org/2000/svg"
   xmlns="http://www.w3.org/2000/svg"
   xmlns:sodipodi="http://sodipodi.sourceforge.net/DTD/sodipodi-0.dtd"
   xmlns:inkscape="http://www.inkscape.org/namespaces/inkscape"
   viewBox="0 0 20 20"
   version="1.1"
   id="svg4"
   sodipodi:docname="comment.svg"
   width="20"
   height="20"
   inkscape:version="0.92.3 (2405546, 2018-03-11)">
  <metadata
     id="metadata10">
    <rdf:RDF>
      <cc:Work
         rdf:about="">
        <dc:format>image/svg+xml</dc:format>
        <dc:type
           rdf:resource="http://purl.org/dc/dcmitype/StillImage" />
        <dc:title></dc:title>
      </cc:Work>
    </rdf:RDF>
  </metadata>
  <defs
     id="defs8" />
  <sodipodi:namedview
     pagecolor="#ffffff"
     bordercolor="#666666"
     borderopacity="1"
     objecttolerance="10"
     gridtolerance="10"
     guidetolerance="10"
     inkscape:pageopacity="0"
     inkscape:pageshadow="2"
     inkscape:window-width="640"
     inkscape:window-height="480"
     id="namedview6"
     showgrid="false"
     units="px"
     inkscape:zoom="9.8333333"
     inkscape:cx="2.8303093"
     inkscape:cy="9.1756612"
     inkscape:window-x="0"
     inkscape:window-y="0"
     inkscape:window-maximized="0"
     inkscape:current-layer="svg4" />
  <path
     d="m 6.1826009,8.9525471 a 0.96422307,0.97966159 0 1 0 0.964186,0.9796666 0.96422307,0.97966159 0 0 0 -0.964186,-0.9796666 z m 3.8568951,0 a 0.96422307,0.97966159 0 1 0 0.964186,0.9796666 0.96422307,0.97966159 0 0 0 -0.964186,-0.9796666 z m 3.856894,0 A 0.96422307,0.97966159 0 1 0 14.860576,9.9322137 0.96422307,0.97966159 0 0 0 13.89639,8.9525471 Z M 10.039496,0.13559342 A 9.6422303,9.7966154 0 0 0 0.39726683,9.9322099 9.5361657,9.6888527 0 0 0 2.5764113,16.133465 L 0.64795782,18.092789 A 0.96422307,0.97966159 0 0 0 0.44549663,19.160626 0.96422307,0.97966159 0 0 0 1.3615629,19.72883 h 8.6780021 a 9.6422307,9.7966159 0 0 0 0,-19.59323051 z m 0,17.63390658 H 3.6852593 l 0.896791,-0.911079 a 0.96422307,0.97966159 0 0 0 0.2892701,-0.695557 0.96422307,0.97966159 0 0 0 -0.2892701,-0.685765 7.7137842,7.8372923 0 1 1 5.4575017,2.292408 z"
     id="path2"
     inkscape:connector-curvature="0"
     style="stroke-width:0.97191161" />
</svg>
